<svg xmlns="http://www.w3.org/2000/svg" viewBox="0 0 300 300" fill="none">
  <rect width="300" height="300" fill="#f3f4f6"/>
  <circle cx="150" cy="130" r="60" fill="#d1d5db"/>
  <path d="M150 90 C130 90 115 105 115 125 C115 145 130 155 150 170 C170 155 185 145 185 125 C185 105 170 90 150 90Z" fill="#10b981" opacity="0.6"/>
  <path d="M150 100 C135 100 125 112 125 127 C125 142 135 150 150 162 C165 150 175 142 175 127 C175 112 165 100 150 100Z" fill="#059669" opacity="0.8"/>
  <rect x="147" y="165" width="6" height="30" rx="3" fill="#065f46"/>
  <text x="150" y="230" text-anchor="middle" font-family="system-ui, sans-serif" font-size="14" fill="#6b7280">Cannabis Strain</text>
</svg>
